HIERARCHY
ROOT Root
{
  OFFSET 0.0 0.0 0.0
  CHANNELS 6 Xposition Yposition Zposition Zrotation Yrotation Xrotation
  JOINT Hips
  {
    OFFSET 0.0 100.0 0.0
    CHANNELS 6 Xposition Yposition Zposition Zrotation Yrotation Xrotation
    JOINT Spine1
    {
      OFFSET 5.003913 -0.037094 -0.013727
      CHANNELS 3 Zrotation Yrotation Xrotation
      JOINT Spine2
      {
        OFFSET 7.125363 -1e-06 0.0
        CHANNELS 3 Zrotation Yrotation Xrotation
        JOINT Chest
        {
          OFFSET 7.594027 1e-06 0.0
          CHANNELS 3 Zrotation Yrotation Xrotation
          JOINT Neck1
          {
            OFFSET 26.313086 -0.460272 -0.181672
            CHANNELS 3 Zrotation Yrotation Xrotation
            JOINT Neck2
            {
              OFFSET 8.045911 0.0 0.0
              CHANNELS 3 Zrotation Yrotation Xrotation
              JOINT Head
              {
                OFFSET 6.432774 0.0 0.0
                CHANNELS 3 Zrotation Yrotation Xrotation
                JOINT HeadEnd
                {
                  OFFSET 16.169773 0.06451 0.00362
                  CHANNELS 3 Zrotation Yrotation Xrotation
                }
                JOINT Jaw
                {
                  OFFSET 0.108741 3.12938 0.002639
                  CHANNELS 3 Zrotation Yrotation Xrotation
                }
                JOINT LeftEye
                {
                  OFFSET 4.45173 8.166359 3.206392
                  CHANNELS 3 Zrotation Yrotation Xrotation
                }
                JOINT RightEye
                {
                  OFFSET 4.436895 8.135758 -3.222429
                  CHANNELS 3 Zrotation Yrotation Xrotation
                }
              }
            }
          }
          JOINT LeftShoulder
          {
            OFFSET 23.218927 5.195579 1.621656
            CHANNELS 3 Zrotation Yrotation Xrotation
            JOINT LeftArm
            {
              OFFSET 15.902118 2e-06 -2e-06
              CHANNELS 3 Zrotation Yrotation Xrotation
              JOINT LeftForeArm
              {
                OFFSET 28.739307 0.0 -1e-06
                CHANNELS 3 Zrotation Yrotation Xrotation
                JOINT LeftHand
                {
                  OFFSET 27.093981 -4e-06 0.0
                  CHANNELS 3 Zrotation Yrotation Xrotation
                  JOINT LeftHandThumb1
                  {
                    OFFSET 2.276781 3.380274 0.83384
                    CHANNELS 3 Zrotation Yrotation Xrotation
                    JOINT LeftHandThumb2
                    {
                      OFFSET 4.705309 -1e-06 -1e-06
                      CHANNELS 3 Zrotation Yrotation Xrotation
                      JOINT LeftHandThumb3
                      {
                        OFFSET 2.798515 0.0 3e-06
                        CHANNELS 3 Zrotation Yrotation Xrotation
                        JOINT LeftHandThumbEnd
                        {
                          OFFSET 3.180793 4e-06 -4e-06
                          CHANNELS 3 Zrotation Yrotation Xrotation
                        }
                      }
                    }
                  }
                  JOINT LeftHandIndex1
                  {
                    OFFSET 3.247786 2.352677 0.137192
                    CHANNELS 3 Zrotation Yrotation Xrotation
                    JOINT LeftHandIndex2
                    {
                      OFFSET 6.367095 1e-06 0.0
                      CHANNELS 3 Zrotation Yrotation Xrotation
                      JOINT LeftHandIndex3
                      {
                        OFFSET 3.662364 0.0 0.0
                        CHANNELS 3 Zrotation Yrotation Xrotation
                        JOINT LeftHandIndex4
                        {
                          OFFSET 2.329242 4e-06 -4e-06
                          CHANNELS 3 Zrotation Yrotation Xrotation
                          JOINT LeftHandIndexEnd
                          {
                            OFFSET 2.767823 1e-06 0.0
                            CHANNELS 3 Zrotation Yrotation Xrotation
                          }
                        }
                      }
                    }
                  }
                  JOINT LeftHandMiddle1
                  {
                    OFFSET 3.163612 0.945023 -0.406112
                    CHANNELS 3 Zrotation Yrotation Xrotation
                    JOINT LeftHandMiddle2
                    {
                      OFFSET 6.276789 3e-06 0.0
                      CHANNELS 3 Zrotation Yrotation Xrotation
                      JOINT LeftHandMiddle3
                      {
                        OFFSET 4.35652 -1e-06 4e-06
                        CHANNELS 3 Zrotation Yrotation Xrotation
                        JOINT LeftHandMiddle4
                        {
                          OFFSET 2.996877 0.0 8e-06
                          CHANNELS 3 Zrotation Yrotation Xrotation
                          JOINT LeftHandMiddleEnd
                          {
                            OFFSET 2.323256 3e-06 -4e-06
                            CHANNELS 3 Zrotation Yrotation Xrotation
                          }
                        }
                      }
                    }
                  }
                  JOINT LeftHandRing1
                  {
                    OFFSET 2.882606 -0.309162 0.107445
                    CHANNELS 3 Zrotation Yrotation Xrotation
                    JOINT LeftHandRing2
                    {
                      OFFSET 6.033198 0.0 4e-06
                      CHANNELS 3 Zrotation Yrotation Xrotation
                      JOINT LeftHandRing3
                      {
                        OFFSET 4.350578 3e-06 0.0
                        CHANNELS 3 Zrotation Yrotation Xrotation
                        JOINT LeftHandRing4
                        {
                          OFFSET 2.651321 2e-06 -7e-06
                          CHANNELS 3 Zrotation Yrotation Xrotation
                          JOINT LeftHandRingEnd
                          {
                            OFFSET 1.937663 1e-06 -4e-06
                            CHANNELS 3 Zrotation Yrotation Xrotation
                          }
                        }
                      }
                    }
                  }
                  JOINT LeftHandPinky1
                  {
                    OFFSET 2.865315 -1.525436 0.575687
                    CHANNELS 3 Zrotation Yrotation Xrotation
                    JOINT LeftHandPinky2
                    {
                      OFFSET 5.54936 1e-06 -8e-06
                      CHANNELS 3 Zrotation Yrotation Xrotation
                      JOINT LeftHandPinky3
                      {
                        OFFSET 3.070974 0.0 -4e-06
                        CHANNELS 3 Zrotation Yrotation Xrotation
                        JOINT LeftHandPinky4
                        {
                          OFFSET 1.549672 1e-06 0.0
                          CHANNELS 3 Zrotation Yrotation Xrotation
                          JOINT LeftHandPinkyEnd
                          {
                            OFFSET 1.952123 0.0 0.0
                            CHANNELS 3 Zrotation Yrotation Xrotation
                          }
                        }
                      }
                    }
                  }
                }
              }
            }
          }
          JOINT RightShoulder
          {
            OFFSET 23.161716 5.296122 -1.380114
            CHANNELS 3 Zrotation Yrotation Xrotation
            JOINT RightArm
            {
              OFFSET -16.027195 -2e-06 1.1e-05
              CHANNELS 3 Zrotation Yrotation Xrotation
              JOINT RightForeArm
              {
                OFFSET -28.736639 4e-06 2e-06
                CHANNELS 3 Zrotation Yrotation Xrotation
                JOINT RightHand
                {
                  OFFSET -27.133619 6e-06 0.0
                  CHANNELS 3 Zrotation Yrotation Xrotation
                  JOINT RightHandThumb1
                  {
                    OFFSET -2.274328 -3.351035 -0.83067
                    CHANNELS 3 Zrotation Yrotation Xrotation
                    JOINT RightHandThumb2
                    {
                      OFFSET -4.703594 -3e-06 2e-06
                      CHANNELS 3 Zrotation Yrotation Xrotation
                      JOINT RightHandThumb3
                      {
                        OFFSET -2.794935 -4e-06 -3e-06
                        CHANNELS 3 Zrotation Yrotation Xrotation
                        JOINT RightHandThumbEnd
                        {
                          OFFSET -3.183852 4e-06 1e-06
                          CHANNELS 3 Zrotation Yrotation Xrotation
                        }
                      }
                    }
                  }
                  JOINT RightHandIndex1
                  {
                    OFFSET -3.253496 -2.33755 -0.127667
                    CHANNELS 3 Zrotation Yrotation Xrotation
                    JOINT RightHandIndex2
                    {
                      OFFSET -6.344434 0.0 0.0
                      CHANNELS 3 Zrotation Yrotation Xrotation
                      JOINT RightHandIndex3
                      {
                        OFFSET -3.654871 0.0 -8e-06
                        CHANNELS 3 Zrotation Yrotation Xrotation
                        JOINT RightHandIndex4
                        {
                          OFFSET -2.327586 -1e-06 0.0
                          CHANNELS 3 Zrotation Yrotation Xrotation
                          JOINT RightHandIndexEnd
                          {
                            OFFSET -2.770001 3e-06 8e-06
                            CHANNELS 3 Zrotation Yrotation Xrotation
                          }
                        }
                      }
                    }
                  }
                  JOINT RightHandMiddle1
                  {
                    OFFSET -3.168223 -0.944764 0.411762
                    CHANNELS 3 Zrotation Yrotation Xrotation
                    JOINT RightHandMiddle2
                    {
                      OFFSET -6.266691 -1e-06 -4e-06
                      CHANNELS 3 Zrotation Yrotation Xrotation
                      JOINT RightHandMiddle3
                      {
                        OFFSET -4.348901 0.0 0.0
                        CHANNELS 3 Zrotation Yrotation Xrotation
                        JOINT RightHandMiddle4
                        {
                          OFFSET -3.00024 2e-06 -4e-06
                          CHANNELS 3 Zrotation Yrotation Xrotation
                          JOINT RightHandMiddleEnd
                          {
                            OFFSET -2.321477 -4e-06 -4e-06
                            CHANNELS 3 Zrotation Yrotation Xrotation
                          }
                        }
                      }
                    }
                  }
                  JOINT RightHandRing1
                  {
                    OFFSET -2.885654 0.293261 -0.119232
                    CHANNELS 3 Zrotation Yrotation Xrotation
                    JOINT RightHandRing2
                    {
                      OFFSET -6.032835 -1e-06 -4e-06
                      CHANNELS 3 Zrotation Yrotation Xrotation
                      JOINT RightHandRing3
                      {
                        OFFSET -4.33881 0.0 -4e-06
                        CHANNELS 3 Zrotation Yrotation Xrotation
                        JOINT RightHandRing4
                        {
                          OFFSET -2.654903 -4e-06 -4e-06
                          CHANNELS 3 Zrotation Yrotation Xrotation
                          JOINT RightHandRingEnd
                          {
                            OFFSET -1.935122 0.0 4e-06
                            CHANNELS 3 Zrotation Yrotation Xrotation
                          }
                        }
                      }
                    }
                  }
                  JOINT RightHandPinky1
                  {
                    OFFSET -2.866241 1.503904 -0.60527
                    CHANNELS 3 Zrotation Yrotation Xrotation
                    JOINT RightHandPinky2
                    {
                      OFFSET -5.553177 -2e-06 0.0
                      CHANNELS 3 Zrotation Yrotation Xrotation
                      JOINT RightHandPinky3
                      {
                        OFFSET -3.062664 -1e-06 -4e-06
                        CHANNELS 3 Zrotation Yrotation Xrotation
                        JOINT RightHandPinky4
                        {
                          OFFSET -1.546529 2e-06 4e-06
                          CHANNELS 3 Zrotation Yrotation Xrotation
                          JOINT RightHandPinkyEnd
                          {
                            OFFSET -1.952341 0.0 -4e-06
                            CHANNELS 3 Zrotation Yrotation Xrotation
                          }
                        }
                      }
                    }
                  }
                }
              }
            }
          }
        }
      }
    }
    JOINT LeftLeg
    {
      OFFSET -8.443107 2.567604 10.043214
      CHANNELS 3 Zrotation Yrotation Xrotation
      JOINT LeftShin
      {
        OFFSET 43.229198 1e-06 -1e-06
        CHANNELS 3 Zrotation Yrotation Xrotation
        JOINT LeftFoot
        {
          OFFSET 42.298611 1e-06 1e-06
          CHANNELS 3 Zrotation Yrotation Xrotation
          JOINT LeftToeBase
          {
            OFFSET 14.165858 1e-06 0.0
            CHANNELS 3 Zrotation Yrotation Xrotation
            JOINT LeftToeEnd
            {
              OFFSET 6.7141 -0.234461 0.0
              CHANNELS 3 Zrotation Yrotation Xrotation
            }
          }
        }
      }
    }
    JOINT RightLeg
    {
      OFFSET -8.303923 2.592729 -10.047278
      CHANNELS 3 Zrotation Yrotation Xrotation
      JOINT RightShin
      {
        OFFSET -43.369682 0.0 1e-06
        CHANNELS 3 Zrotation Yrotation Xrotation
        JOINT RightFoot
        {
          OFFSET -42.260784 4e-06 2e-06
          CHANNELS 3 Zrotation Yrotation Xrotation
          JOINT RightToeBase
          {
            OFFSET -14.222245 -2e-06 -1e-06
            CHANNELS 3 Zrotation Yrotation Xrotation
            JOINT RightToeEnd
            {
              OFFSET -6.660062 0.232574 -2e-06
              CHANNELS 3 Zrotation Yrotation Xrotation
            }
          }
        }
      }
    }
  }
}
MOTION
Frames: 4
Frame Time: 0.03333333333333333
0.0 0.0 0.0 0.0 -0.0 0.0 1.351361 88.853554 -6.650582 92.4468 10.067225 83.585152 7.20778 0.312093 -0.246511 -8.367444 -0.121302 -0.003697 23.234426 -0.015789 -2.20142 10.559381 1.220438 3.524184 -2.266745 0.025999 2.707591 -52.96389 0.300267 4.977808 3e-06 -0.0 0.0 0.098815 -0.041346 -0.201663 0.062842 -0.091808 -0.276799 0.184916 -0.013749 -0.102159 -124.243317 -77.001518 144.581894 33.712528 -61.898823 -47.183628 95.712891 -1.452044 -1.423055 -31.8402 37.893658 -8.657749 17.636639 -26.322664 52.411175 -19.466665 -14.395587 29.410398 -3e-06 -8.774835 -7e-06 16.384308 -17.326744 6.336389 -0.609775 -1.795654 -3.889326 -4.80709 -11.046802 -2.937861 1.8e-05 -20.976011 -2e-05 -5.019941 -25.033585 -4.031934 7e-06 -0.0 -0.0 -10.634535 -5.686972 -3.565588 10.573278 -17.92293 -3.113909 1.2e-05 -13.821199 -8e-06 -0.501729 -31.181536 -4.027057 -11.777888 -59.449715 7.68257 -13.982716 -7.150198 -2.875042 13.772735 -8.401484 -3.21824 0.347763 -34.211536 0.771628 -0.963012 -17.733393 2.621028 2e-06 -0.0 1e-06 -17.346418 -20.095207 -4.201792 21.757565 -1.638379 3.866441 4e-06 -6.33882 -3e-06 -1.697564 -22.591764 -6.194051 -1e-06 -3e-06 -2e-06 137.426224 -83.344536 58.11198 42.886028 -75.283661 -33.438801 124.073311 3.00819 -0.46671 -64.112991 68.671936 -130.622406 22.18211 -20.375895 49.933285 -16.701817 -16.743546 28.476528 -2.2e-05 -12.690612 2e-06 16.864031 -17.773653 1.861021 -0.105918 -1.513852 -4.275878 -5.039035 -5.612856 -2.953556 2.5e-05 -11.020518 -3e-06 -6.111278 -15.895338 -3.840487 2e-06 -0.0 2e-06 -10.283363 -5.68027 -4.341836 11.028307 -11.302395 -2.372633 -1.384248 -14.238561 -6.320125 -0.625383 -26.924215 -3.827596 -4.802961 -52.829704 -2.827476 -13.708514 -7.363452 -3.720939 18.141171 -14.052733 -3.242676 3e-05 -18.787266 1e-05 -0.429703 -8.456057 2.555525 -1e-06 0.0 0.0 -15.923514 -20.094429 -5.473588 30.419222 -7.190851 1.735918 1.2e-05 -8.162922 7e-06 -1.861873 -22.861488 -6.167929 -0.0 -4e-06 -1e-06 166.278366 -6.240349 -14.140966 57.357056 -0.006068 -0.101881 -100.592339 -4.202999 -8.752217 -3.909137 1.619852 2.195223 -0.999999 1e-06 0.0 -16.834311 -14.711394 -4.089921 59.367485 -0.422562 0.969558 -103.764519 7.197531 -12.96352 -6.129372 0.600102 1.669405 -1.000003 -0.0 -0.0 
0.0 0.0 0.0 0.0 -0.0 0.0 -0.268963 88.735626 -6.868995 88.774117 9.290708 85.550186 7.594494 -0.06778 -0.048198 -8.189273 -0.555093 -0.812747 22.460194 1.663804 -2.225436 7.904489 7.563302 3.703334 -2.205878 0.34942 2.184199 -53.300446 1.557157 3.790238 3e-06 1e-06 0.0 0.113686 -0.098111 -0.263134 0.084846 -0.185694 -0.320564 0.267756 -0.036685 -0.175506 -96.330116 -81.750595 114.609947 38.124969 -60.465355 -57.955822 102.916817 -1.94847 -1.210888 -34.103462 33.750153 -16.339067 17.636641 -26.322741 52.411255 -19.466713 -14.395628 29.410442 -3e-06 -8.774846 -1e-06 15.75188 -16.480261 6.887043 -0.609775 -1.795658 -3.889335 -4.807099 -11.046827 -2.937856 1.7e-05 -20.976067 -1.2e-05 -5.019961 -25.033655 -4.031913 6e-06 0.0 0.0 -10.63455 -5.686978 -3.56559 10.5733 -17.922977 -3.113915 1.1e-05 -13.82124 -3e-06 -0.501747 -31.181637 -4.02704 -11.3977 -59.35384 7.318174 -13.982737 -7.150209 -2.875044 13.77276 -8.401505 -3.218252 0.347758 -34.211651 0.771642 -0.963021 -17.733452 2.621037 1e-06 -1e-06 1e-06 -17.346451 -20.095243 -4.201789 21.757605 -1.63838 3.866431 4e-06 -6.338832 -2e-06 -1.69757 -22.591822 -6.194051 0.0 -5e-06 -2e-06 119.303162 -84.067596 76.215645 30.894739 -79.449951 -18.231855 118.944084 0.875728 0.368935 -95.136078 54.947624 -172.654877 22.182154 -20.375938 49.933453 -16.70182 -16.743511 28.476587 3e-06 -12.690605 -6e-06 16.041101 -18.738462 3.249322 -0.105923 -1.51386 -4.275889 -5.039049 -5.612886 -2.953569 -1e-06 -11.020565 -4e-06 -6.111305 -15.895432 -3.840508 1e-06 0.0 0.0 -10.283382 -5.6803 -4.341855 11.028287 -11.302424 -2.37263 -1.384273 -14.238629 -6.320152 -0.625433 -26.924324 -3.827644 -5.62148 -57.422085 -1.754799 -13.708536 -7.363496 -3.720956 18.141146 -14.052765 -3.242669 1e-06 -18.787344 -7e-06 -0.429716 -8.456094 2.555517 -0.0 -1e-06 0.0 -15.923554 -20.094532 -5.473608 30.419205 -7.190824 1.735947 -0.0 -8.162952 -1e-06 -1.861891 -22.861597 -6.167989 -0.0 -0.0 -1e-06 163.320511 -10.745726 -9.668141 60.541786 0.006409 -0.002638 -100.38102 -4.67994 -9.77295 -4.411175 1.672034 2.183789 -0.999997 -1e-06 -0.0 -15.97172 -10.768326 -8.750341 59.091274 -0.357425 0.783578 -103.654663 8.044563 -11.32919 -6.171813 0.561913 1.653285 -1.000003 0.0 1e-06 
0.0 0.0 0.0 0.0 -0.0 0.0 -1.909767 88.1931 -6.984542 84.770691 8.73937 88.645699 7.81188 -0.237387 0.026244 -8.119453 -0.918774 -1.559925 22.168083 3.894648 -2.402539 5.283557 13.269232 3.541554 -2.193217 0.519234 1.308026 -53.548412 1.877948 1.748883 7e-06 -1e-06 -1e-06 0.143064 -0.101122 -0.228541 0.193707 -0.173919 -0.245787 0.39631 -0.053459 -0.1796 -51.113289 -82.252861 67.877258 40.122936 -55.177692 -65.424568 111.136047 -1.417267 -0.249594 -39.558788 32.657997 -29.772419 17.636505 -26.322674 52.411171 -19.466663 -14.395654 29.410416 1e-06 -8.774831 1.5e-05 15.349189 -15.805087 7.660157 -0.609772 -1.79565 -3.889328 -4.807091 -11.046793 -2.937845 1e-06 -20.975967 -1.5e-05 -5.019968 -25.033525 -4.031902 6e-06 1e-06 0.0 -10.634529 -5.68697 -3.565572 10.57327 -17.922899 -3.113923 -3e-06 -13.821177 -6e-06 -0.501771 -31.18145 -4.027037 -11.964192 -61.309944 8.003932 -13.982711 -7.150193 -2.875021 13.772732 -8.401467 -3.218267 0.347722 -34.211479 0.771636 -0.963033 -17.733362 2.621009 -0.0 -1e-06 0.0 -17.346424 -20.0952 -4.201759 21.757576 -1.638351 3.866393 -4e-06 -6.338812 -0.0 -1.697596 -22.591736 -6.194025 0.0 -4e-06 -2e-06 73.578026 -83.116928 123.476463 8.482258 -75.435059 7.221852 112.250938 -0.372599 2.01223 -98.529556 28.27113 162.829041 22.18235 -20.376049 49.933575 -16.701828 -16.743559 28.47661 -2e-06 -12.690667 -3.7e-05 15.233264 -18.948101 5.362805 -0.105928 -1.513856 -4.275895 -5.03907 -5.612881 -2.953577 1.3e-05 -11.020572 9e-06 -6.111328 -15.895421 -3.840519 1e-06 2e-06 -1e-06 -10.283423 -5.680294 -4.341872 11.028346 -11.30244 -2.372607 -1.38428 -14.238626 -6.320158 -0.625433 -26.924358 -3.8276 -6.249869 -60.059891 -1.067694 -13.708591 -7.363488 -3.720977 18.141228 -14.052791 -3.242635 1.4e-05 -18.787355 3.1e-05 -0.429709 -8.456104 2.555554 1e-06 -0.0 -0.0 -15.92361 -20.094526 -5.473635 30.419331 -7.190891 1.736009 1.2e-05 -8.162971 1.7e-05 -1.861902 -22.861631 -6.167955 -1e-06 -3e-06 -1e-06 159.273331 -15.147452 -3.818937 64.430344 -0.027887 0.177701 -100.176842 -4.671952 -10.56749 -4.928372 1.670659 2.183418 -0.999997 0.0 0.0 -15.03477 -6.638467 -14.04915 58.850216 -0.197076 0.520217 -103.757408 8.357404 -10.016496 -6.034605 0.484054 1.646155 -1.000004 -0.0 0.0 
0.0 0.0 0.0 0.0 -0.0 0.0 -3.340143 87.450775 -6.94394 81.028877 8.535948 91.573997 7.982863 -0.404817 -0.033928 -8.08381 -1.171225 -1.819201 22.218676 6.420623 -2.54524 2.854125 17.875439 2.845762 -2.19186 0.519577 0.727126 -54.198452 1.564049 -0.171611 8e-06 -1e-06 0.0 0.126664 -0.047845 -0.146127 0.214739 -0.087213 -0.160913 0.396897 -0.03332 -0.104762 -23.933914 -78.759148 39.411358 39.947182 -48.02681 -69.150696 118.519493 0.45839 0.687622 -45.097145 35.04776 -44.706684 17.636637 -26.322832 52.411335 -19.466698 -14.395648 29.410477 2e-06 -8.77485 4e-06 15.453526 -15.612411 7.956889 -0.609778 -1.795654 -3.889335 -4.807099 -11.046834 -2.937852 -4e-06 -20.976084 1.6e-05 -5.02 -25.033672 -4.03188 6e-06 0.0 0.0 -10.634555 -5.686984 -3.565589 10.573296 -17.922987 -3.113905 -3e-06 -13.821252 1.5e-05 -0.501804 -31.181665 -4.026996 -13.101428 -63.594265 9.100109 -13.982738 -7.150214 -2.875041 13.772758 -8.401506 -3.218253 0.347708 -34.211658 0.771697 -0.963054 -17.733459 2.621053 -0.0 -1e-06 0.0 -17.346457 -20.095263 -4.201781 21.757605 -1.638372 3.866425 -4e-06 -6.338842 8e-06 -1.697602 -22.591858 -6.194017 -1e-06 -4e-06 -2e-06 46.520313 -78.968414 152.628632 -1.781812 -68.037323 17.626257 104.892067 -1.236593 3.203965 -89.094643 8.46996 148.670135 22.182175 -20.375906 49.933418 -16.701859 -16.743542 28.476595 -1e-06 -12.690638 -1e-05 14.741406 -18.044718 6.254223 -0.105921 -1.513862 -4.27589 -5.039055 -5.612892 -2.953569 6e-06 -11.020572 -9e-06 -6.111314 -15.895438 -3.840508 -0.0 -0.0 -1e-06 -10.283393 -5.680312 -4.341848 11.028315 -11.302435 -2.372638 -1.384271 -14.238647 -6.320158 -0.625418 -26.924374 -3.827647 -5.866623 -56.28215 -1.462581 -13.708556 -7.363503 -3.72095 18.14119 -14.052778 -3.242679 1.7e-05 -18.78735 -1.6e-05 -0.429707 -8.45609 2.555516 0.0 -0.0 -1e-06 -15.923577 -20.094547 -5.473601 30.419271 -7.190843 1.735942 5e-06 -8.162954 -5e-06 -1.86188 -22.861597 -6.168 -1e-06 -4e-06 -1e-06 155.091064 -18.455215 2.40091 68.062088 -0.104393 0.360461 -100.468857 -4.662754 -11.326722 -5.341883 1.645362 2.223581 -0.999999 1e-06 0.0 -14.534788 -2.87345 -18.746178 59.015057 -0.049485 0.258081 -104.073204 8.672292 -9.235593 -5.746908 0.445668 1.6583 -1.0 -1e-06 -0.0 
